<svg xmlns="http://www.w3.org/2000/svg" width="1012" height="300" viewBox="0 0 1012 300" font-family="-apple-system,'Segoe UI','Helvetica Neue',Arial,sans-serif" role="img" aria-label="XiaBee language distribution: all time versus last 90 days, based on actual code bytes"><rect width="1012" height="300" rx="12" fill="#F6F8FA"/><text x="24" y="32" fill="#1F2328" font-size="16" font-weight="700">Languages</text><text x="988" y="32" text-anchor="end" fill="#77808A" font-size="11.5">code-based · public + private</text><text x="24" y="60" fill="#1F2328" font-size="13.5" font-weight="700">All Time</text><text x="24" y="77" fill="#77808A" font-size="10.5">owned repositories</text><text x="24" y="106" fill="#3D444D" font-size="11.5" font-weight="600">Go</text><rect x="24" y="110" width="354" height="7" rx="3.5" fill="#EDF1F5" stroke="#E7EBEF" stroke-width="1"/><rect x="24" y="110" width="186.2" height="7" rx="3.5" fill="#0969DA" opacity="1"/><text x="388" y="106" fill="#77808A" font-size="11" font-family="ui-monospace,'Cascadia Code','SF Mono',Consolas,monospace">52.6%</text><text x="24" y="135" fill="#3D444D" font-size="11.5" font-weight="600">TypeScript</text><rect x="24" y="139" width="354" height="7" rx="3.5" fill="#EDF1F5" stroke="#E7EBEF" stroke-width="1"/><rect x="24" y="139" width="56.3" height="7" rx="3.5" fill="#0969DA" opacity="0.91"/><text x="388" y="135" fill="#77808A" font-size="11" font-family="ui-monospace,'Cascadia Code','SF Mono',Consolas,monospace">15.9%</text><text x="24" y="164" fill="#3D444D" font-size="11.5" font-weight="600">Python</text><rect x="24" y="168" width="354" height="7" rx="3.5" fill="#EDF1F5" stroke="#E7EBEF" stroke-width="1"/><rect x="24" y="168" width="41.8" height="7" rx="3.5" fill="#0969DA" opacity="0.8200000000000001"/><text x="388" y="164" fill="#77808A" font-size="11" font-family="ui-monospace,'Cascadia Code','SF Mono',Consolas,monospace">11.8%</text><text x="24" y="193" fill="#3D444D" font-size="11.5" font-weight="600">JavaScript</text><rect x="24" y="197" width="354" height="7" rx="3.5" fill="#EDF1F5" stroke="#E7EBEF" stroke-width="1"/><rect x="24" y="197" width="24.4" height="7" rx="3.5" fill="#0969DA" opacity="0.73"/><text x="388" y="193" fill="#77808A" font-size="11" font-family="ui-monospace,'Cascadia Code','SF Mono',Consolas,monospace">6.9%</text><text x="24" y="222" fill="#3D444D" font-size="11.5" font-weight="600">Rust</text><rect x="24" y="226" width="354" height="7" rx="3.5" fill="#EDF1F5" stroke="#E7EBEF" stroke-width="1"/><rect x="24" y="226" width="14.5" height="7" rx="3.5" fill="#0969DA" opacity="0.64"/><text x="388" y="222" fill="#77808A" font-size="11" font-family="ui-monospace,'Cascadia Code','SF Mono',Consolas,monospace">4.1%</text><text x="24" y="251" fill="#3D444D" font-size="11.5" font-weight="600">Shell</text><rect x="24" y="255" width="354" height="7" rx="3.5" fill="#EDF1F5" stroke="#E7EBEF" stroke-width="1"/><rect x="24" y="255" width="12.0" height="7" rx="3.5" fill="#0969DA" opacity="0.55"/><text x="388" y="251" fill="#77808A" font-size="11" font-family="ui-monospace,'Cascadia Code','SF Mono',Consolas,monospace">3.4%</text><text x="24" y="280" fill="#3D444D" font-size="11.5" font-weight="600">Other</text><rect x="24" y="284" width="354" height="7" rx="3.5" fill="#EDF1F5" stroke="#E7EBEF" stroke-width="1"/><rect x="24" y="284" width="19.1" height="7" rx="3.5" fill="#0969DA" opacity="0.45999999999999996"/><text x="388" y="280" fill="#77808A" font-size="11" font-family="ui-monospace,'Cascadia Code','SF Mono',Consolas,monospace">5.4%</text><text x="528" y="60" fill="#1F2328" font-size="13.5" font-weight="700">Last 90 Days</text><text x="528" y="77" fill="#77808A" font-size="10.5">commit-weighted · active repos</text><text x="528" y="106" fill="#3D444D" font-size="11.5" font-weight="600">Go</text><rect x="528" y="110" width="354" height="7" rx="3.5" fill="#EDF1F5" stroke="#E7EBEF" stroke-width="1"/><rect x="528" y="110" width="202.1" height="7" rx="3.5" fill="#1A7F37" opacity="1"/><text x="892" y="106" fill="#77808A" font-size="11" font-family="ui-monospace,'Cascadia Code','SF Mono',Consolas,monospace">57.1%</text><text x="528" y="135" fill="#3D444D" font-size="11.5" font-weight="600">Python</text><rect x="528" y="139" width="354" height="7" rx="3.5" fill="#EDF1F5" stroke="#E7EBEF" stroke-width="1"/><rect x="528" y="139" width="48.5" height="7" rx="3.5" fill="#1A7F37" opacity="0.91"/><text x="892" y="135" fill="#77808A" font-size="11" font-family="ui-monospace,'Cascadia Code','SF Mono',Consolas,monospace">13.7%</text><text x="528" y="164" fill="#3D444D" font-size="11.5" font-weight="600">TypeScript</text><rect x="528" y="168" width="354" height="7" rx="3.5" fill="#EDF1F5" stroke="#E7EBEF" stroke-width="1"/><rect x="528" y="168" width="40.4" height="7" rx="3.5" fill="#1A7F37" opacity="0.8200000000000001"/><text x="892" y="164" fill="#77808A" font-size="11" font-family="ui-monospace,'Cascadia Code','SF Mono',Consolas,monospace">11.4%</text><text x="528" y="193" fill="#3D444D" font-size="11.5" font-weight="600">Rust</text><rect x="528" y="197" width="354" height="7" rx="3.5" fill="#EDF1F5" stroke="#E7EBEF" stroke-width="1"/><rect x="528" y="197" width="23.4" height="7" rx="3.5" fill="#1A7F37" opacity="0.73"/><text x="892" y="193" fill="#77808A" font-size="11" font-family="ui-monospace,'Cascadia Code','SF Mono',Consolas,monospace">6.6%</text><text x="528" y="222" fill="#3D444D" font-size="11.5" font-weight="600">JavaScript</text><rect x="528" y="226" width="354" height="7" rx="3.5" fill="#EDF1F5" stroke="#E7EBEF" stroke-width="1"/><rect x="528" y="226" width="16.3" height="7" rx="3.5" fill="#1A7F37" opacity="0.64"/><text x="892" y="222" fill="#77808A" font-size="11" font-family="ui-monospace,'Cascadia Code','SF Mono',Consolas,monospace">4.6%</text><text x="528" y="251" fill="#3D444D" font-size="11.5" font-weight="600">Shell</text><rect x="528" y="255" width="354" height="7" rx="3.5" fill="#EDF1F5" stroke="#E7EBEF" stroke-width="1"/><rect x="528" y="255" width="15.9" height="7" rx="3.5" fill="#1A7F37" opacity="0.55"/><text x="892" y="251" fill="#77808A" font-size="11" font-family="ui-monospace,'Cascadia Code','SF Mono',Consolas,monospace">4.5%</text><text x="528" y="280" fill="#3D444D" font-size="11.5" font-weight="600">Other</text><rect x="528" y="284" width="354" height="7" rx="3.5" fill="#EDF1F5" stroke="#E7EBEF" stroke-width="1"/><rect x="528" y="284" width="7.1" height="7" rx="3.5" fill="#1A7F37" opacity="0.45999999999999996"/><text x="892" y="280" fill="#77808A" font-size="11" font-family="ui-monospace,'Cascadia Code','SF Mono',Consolas,monospace">2%</text></svg>