<svg xmlns="http://www.w3.org/2000/svg" width="1012" height="264" viewBox="0 0 1012 264" font-family="-apple-system,'Segoe UI','Helvetica Neue',Arial,sans-serif" role="img" aria-label="XiaBee GitHub development overview: 1436 commits, 86 active days in the last 365 days across public and private repositories"><rect width="1012" height="264" rx="12" fill="#F6F8FA"/><text x="24" y="36" fill="#1F2328" font-size="17" font-weight="700" letter-spacing="0.4">Development Activity</text><rect x="684" y="20" width="304" height="23" rx="11.5" fill="#FFFFFF" stroke="#D8DEE4"/><text x="836" y="36" text-anchor="middle" fill="#77808A" font-size="11.5">last 365 days · public + private</text><rect x="24" y="54" width="313.3333333333333" height="86" rx="10" fill="#FFFFFF" stroke="#D8DEE4" stroke-width="1"/><rect x="24" y="69" width="4" height="56" rx="2" fill="#0969DA"/><text x="44" y="86" fill="#77808A" font-size="12" letter-spacing="1.1">COMMITS</text><text x="44" y="124" fill="#1F2328" font-size="33" font-weight="800" font-family="ui-monospace,'Cascadia Code','SF Mono',Consolas,monospace">1436</text><rect x="349.3333333333333" y="54" width="313.3333333333333" height="86" rx="10" fill="#FFFFFF" stroke="#D8DEE4" stroke-width="1"/><rect x="349.3333333333333" y="69" width="4" height="56" rx="2" fill="#1A7F37"/><text x="369.3333333333333" y="86" fill="#77808A" font-size="12" letter-spacing="1.1">CONTRIBUTIONS</text><text x="369.3333333333333" y="124" fill="#1F2328" font-size="33" font-weight="800" font-family="ui-monospace,'Cascadia Code','SF Mono',Consolas,monospace">1890</text><rect x="674.6666666666666" y="54" width="313.3333333333333" height="86" rx="10" fill="#FFFFFF" stroke="#D8DEE4" stroke-width="1"/><rect x="674.6666666666666" y="69" width="4" height="56" rx="2" fill="#8250DF"/><text x="694.6666666666666" y="86" fill="#77808A" font-size="12" letter-spacing="1.1">ACTIVE DAYS</text><text x="694.6666666666666" y="124" fill="#1F2328" font-size="33" font-weight="800" font-family="ui-monospace,'Cascadia Code','SF Mono',Consolas,monospace">86</text><rect x="24" y="152" width="313.3333333333333" height="86" rx="10" fill="#FFFFFF" stroke="#D8DEE4" stroke-width="1"/><rect x="24" y="167" width="4" height="56" rx="2" fill="#0969DA"/><text x="44" y="184" fill="#77808A" font-size="12" letter-spacing="1.1">REPOS TOUCHED</text><text x="44" y="222" fill="#1F2328" font-size="33" font-weight="800" font-family="ui-monospace,'Cascadia Code','SF Mono',Consolas,monospace">22</text><rect x="349.3333333333333" y="152" width="313.3333333333333" height="86" rx="10" fill="#FFFFFF" stroke="#D8DEE4" stroke-width="1"/><rect x="349.3333333333333" y="167" width="4" height="56" rx="2" fill="#1A7F37"/><text x="369.3333333333333" y="184" fill="#77808A" font-size="12" letter-spacing="1.1">LINES ADDED</text><text x="369.3333333333333" y="222" fill="#1F2328" font-size="33" font-weight="800" font-family="ui-monospace,'Cascadia Code','SF Mono',Consolas,monospace">+547.1k</text><rect x="674.6666666666666" y="152" width="313.3333333333333" height="86" rx="10" fill="#FFFFFF" stroke="#D8DEE4" stroke-width="1"/><rect x="674.6666666666666" y="167" width="4" height="56" rx="2" fill="#8250DF"/><text x="694.6666666666666" y="184" fill="#77808A" font-size="12" letter-spacing="1.1">LINES DELETED</text><text x="694.6666666666666" y="222" fill="#1F2328" font-size="33" font-weight="800" font-family="ui-monospace,'Cascadia Code','SF Mono',Consolas,monospace">-30.8k</text></svg>